<svg width="32" height="32" viewBox="0 0 32 32" fill="none" xmlns="http://www.w3.org/2000/svg">
<path d="M19.5 9.4C19.1906 9.4 18.8938 9.27357 18.675 9.04853C18.4562 8.82348 18.3333 8.51826 18.3333 8.2V6.4H13.6667V8.2C13.6667 8.51826 13.5437 8.82348 13.325 9.04853C13.1062 9.27357 12.8094 9.4 12.5 9.4C12.1906 9.4 11.8938 9.27357 11.675 9.04853C11.4562 8.82348 11.3333 8.51826 11.3333 8.2V6.4C11.3333 5.0764 12.3798 4 13.6667 4H18.3333C19.6202 4 20.6667 5.0764 20.6667 6.4V8.2C20.6667 8.51826 20.5437 8.82348 20.325 9.04853C20.1062 9.27357 19.8094 9.4 19.5 9.4ZM16.8283 20.056C16.2674 20.2534 15.6573 20.2449 15.1017 20.032L2 15.544V24.7C2 26.524 3.435 28 5.20833 28H26.7917C28.565 28 30 26.524 30 24.7V15.544L16.8283 20.056Z" fill="white"/>
<path d="M30 11.0556V13.6L16.28 17.9556C16.1867 17.9889 16.0933 18 16 18C15.9067 18 15.8133 17.9889 15.72 17.9556L2 13.6V11.0556C2 9.36667 3.435 8 5.20833 8H26.7917C28.565 8 30 9.36667 30 11.0556Z" fill="white"/>
</svg>
