<svg width="36" height="36" viewBox="0 0 36 36" fill="none" xmlns="http://www.w3.org/2000/svg">
<path fill-rule="evenodd" clip-rule="evenodd" d="M18.4095 4.8524C15.7919 4.76456 13.2126 5.49986 11.0347 6.9548C8.58579 8.59165 6.79239 11.0395 5.96993 13.868C5.74713 13.8408 5.48033 13.8528 5.16353 13.9424C3.98073 14.2784 3.09153 15.2472 2.69153 16.1008C2.17233 17.2132 1.95353 18.6848 2.18433 20.2032C2.41353 21.7172 3.05313 22.9652 3.85313 23.74C4.65553 24.5152 5.56153 24.7672 6.46153 24.578C7.80153 24.292 8.46593 24.078 8.27833 22.83L7.37033 16.778C7.46243 15.1308 7.93629 13.5276 8.75448 12.0951C9.57267 10.6625 10.7128 9.4398 12.0847 8.5236C13.9336 7.28685 16.1237 6.66089 18.3469 6.7338C20.5701 6.8067 22.7145 7.57479 24.4783 8.93C25.6961 9.8637 26.6975 11.0497 27.4138 12.4068C28.1301 13.7638 28.5444 15.2598 28.6283 16.792L27.9931 21.0252C27.3039 22.9145 26.0932 24.5696 24.5015 25.7987C22.9097 27.0278 21.0021 27.7804 18.9999 27.9692H16.2935C16.1279 27.9688 15.9639 28.0012 15.8108 28.0643C15.6577 28.1275 15.5186 28.2203 15.4015 28.3374C15.2843 28.4544 15.1915 28.5935 15.1282 28.7465C15.0649 28.8996 15.0325 29.0636 15.0327 29.2292V29.894C15.0324 30.0596 15.0648 30.2237 15.1281 30.3768C15.1913 30.5299 15.2842 30.669 15.4013 30.7861C15.5185 30.9032 15.6576 30.996 15.8107 31.0592C15.9638 31.1224 16.1279 31.1548 16.2935 31.1544H19.7059C19.8714 31.1547 20.0352 31.1222 20.1881 31.059C20.341 30.9957 20.4799 30.9029 20.5968 30.7858C20.7137 30.6687 20.8063 30.5297 20.8693 30.3767C20.9323 30.2238 20.9645 30.0598 20.9639 29.8944V29.5464C24.03 28.796 26.701 26.9186 28.4455 24.288L29.5387 24.578C30.4283 24.8088 31.3451 24.5148 32.1471 23.74C32.9471 22.9648 33.5863 21.7172 33.8159 20.2032C34.0479 18.6844 33.8223 17.2156 33.3095 16.1008C32.7947 14.986 32.0279 14.278 31.1427 14.024C30.7719 13.9172 30.3695 13.878 30.0243 13.868C29.2812 11.3101 27.7412 9.05606 25.6283 7.434C23.5512 5.83978 21.0266 4.9369 18.4095 4.8524Z" fill="white"/>
<path fill-rule="evenodd" clip-rule="evenodd" d="M22.4039 15.74C22.8375 15.7403 23.2532 15.9127 23.5597 16.2193C23.8662 16.5259 24.0385 16.9417 24.0387 17.3752C24.038 17.8087 23.8655 18.2241 23.559 18.5306C23.2525 18.8371 22.837 19.0097 22.4035 19.0104C21.9696 19.0105 21.5533 18.8383 21.2463 18.5317C20.9392 18.2251 20.7664 17.8091 20.7659 17.3752C20.766 17.1603 20.8084 16.9474 20.8907 16.7489C20.9731 16.5503 21.0937 16.37 21.2458 16.2181C21.3979 16.0662 21.5784 15.9457 21.777 15.8636C21.9757 15.7815 22.1886 15.7394 22.4035 15.7396L22.4039 15.74ZM17.9999 15.74C18.3233 15.7402 18.6393 15.8362 18.9081 16.0159C19.1769 16.1957 19.3864 16.4511 19.51 16.7499C19.6337 17.0487 19.666 17.3774 19.6028 17.6946C19.5397 18.0117 19.3839 18.303 19.1552 18.5316C18.9266 18.7602 18.6352 18.9159 18.3181 18.979C18.0009 19.0421 17.6722 19.0097 17.3734 18.886C17.0747 18.7622 16.8193 18.5527 16.6396 18.2839C16.4599 18.015 16.364 17.699 16.3639 17.3756C16.3637 17.1607 16.4059 16.9479 16.488 16.7493C16.5702 16.5507 16.6907 16.3703 16.8426 16.2183C16.9946 16.0663 17.175 15.9458 17.3736 15.8637C17.5722 15.7816 17.785 15.7398 17.9999 15.74ZM13.5971 15.74C13.8149 15.7352 14.0314 15.7739 14.234 15.8539C14.4367 15.9339 14.6212 16.0536 14.777 16.2059C14.9327 16.3583 15.0564 16.5401 15.1409 16.7409C15.2254 16.9417 15.2689 17.1574 15.2689 17.3752C15.2689 17.593 15.2254 17.8087 15.1409 18.0095C15.0564 18.2102 14.9327 18.3921 14.777 18.5445C14.6212 18.6968 14.4367 18.8165 14.234 18.8965C14.0314 18.9765 13.8149 19.0152 13.5971 19.0104C13.1678 19.0037 12.7584 18.8284 12.4571 18.5225C12.1559 18.2165 11.9871 17.8044 11.9871 17.375C11.9871 16.9456 12.1559 16.5335 12.4571 16.2275C12.7584 15.9216 13.1678 15.7467 13.5971 15.74ZM17.9999 8.7144C13.2039 8.7144 9.33911 12.452 9.33911 17.3748C9.33911 19.7392 10.2331 21.8288 11.6895 23.362L11.1727 25.6788C11.0023 26.4412 11.5311 26.954 12.2167 26.5724L14.4787 25.3104C15.59 25.792 16.7888 26.039 17.9999 26.036C22.7975 26.036 26.6599 22.3008 26.6599 17.376C26.6599 12.4528 22.7975 8.7152 17.9999 8.7152V8.7144Z" fill="white"/>
</svg>
