<svg width="36" height="36" viewBox="0 0 36 36" fill="none" xmlns="http://www.w3.org/2000/svg">
<path d="M21.0503 17.6462C19.9448 18.7517 19.37 20.2109 19.37 21.8028C19.37 25.0308 21.9789 27.5956 25.2069 27.5956H25.2512C28.5234 27.5956 31.0881 24.9424 31.0439 21.7144C30.9997 16.4965 24.6763 13.976 21.0503 17.6462ZM30.1595 21.7144C30.1595 24.4118 28.037 26.667 25.2069 26.7112C22.1558 26.6227 20.2544 24.2791 20.2101 21.7586C20.2101 20.432 20.6966 19.1939 21.6252 18.2653C24.7647 15.1699 30.1153 17.2924 30.1595 21.7144ZM31.8841 29.2759C31.663 28.9221 30.8228 27.7282 29.85 26.5785C29.0983 27.3302 28.2139 27.8609 27.1968 28.1262C27.7717 29.5412 28.3907 30.8678 28.5676 31.1773C29.0983 32.0617 30.2922 32.3713 31.1766 31.8406C32.1052 31.3542 32.4147 30.1603 31.8841 29.2759ZM11.3662 4.11503L4.11426 11.3228H11.3662V4.11503Z" fill="white"/>
<path d="M22.3771 27.861C22.2886 27.9937 22.156 28.0821 22.0233 28.0821H8.09419C7.87309 28.0821 7.65199 27.9053 7.65199 27.6399C7.65199 27.4188 7.87309 27.1977 8.09419 27.1977H21.2274C19.547 25.9596 18.4858 24.0139 18.4858 21.803C18.4415 17.2484 22.8193 14.0203 27.0643 15.3027V5.17645C27.0643 4.42472 26.4895 3.84987 25.7378 3.84987H12.2508V11.7652C12.2508 11.9863 12.0297 12.2073 11.8086 12.2073H3.84912V30.8237C3.84912 31.5755 4.42397 32.1503 5.1757 32.1503H25.7378C26.4895 32.1503 27.0643 31.5755 27.0643 30.8237V28.2148C25.6051 28.657 23.9248 28.5685 22.3771 27.861ZM16.9381 7.60852H23.2172C23.4383 7.60852 23.6594 7.7854 23.6594 8.05072C23.6594 8.27182 23.4383 8.49291 23.2172 8.49291H16.9381C16.6728 8.49291 16.4959 8.27182 16.4959 8.05072C16.4959 7.7854 16.6728 7.60852 16.9381 7.60852ZM15.1251 10.9692H23.2172C23.4383 10.9692 23.6594 11.1461 23.6594 11.4114C23.6594 11.6325 23.4383 11.8536 23.2172 11.8536H15.1251C14.904 11.8536 14.6829 11.6325 14.6829 11.4114C14.6829 11.1461 14.904 10.9692 15.1251 10.9692ZM8.09419 14.9932H20.5199C20.7852 14.9932 20.9621 15.2143 20.9621 15.4354C20.9621 15.7007 20.7852 15.8776 20.5199 15.8776H8.09419C7.87309 15.8776 7.65199 15.7007 7.65199 15.4354C7.65199 15.2143 7.87309 14.9932 8.09419 14.9932ZM8.09419 19.0614H17.4245C17.6456 19.0614 17.8667 19.2825 17.8667 19.5036C17.8667 19.7689 17.6456 19.9458 17.4245 19.9458H8.09419C7.87309 19.9458 7.65199 19.7689 7.65199 19.5036C7.65199 19.2825 7.87309 19.0614 8.09419 19.0614ZM8.09419 23.1296H17.2918C17.5129 23.1296 17.734 23.3507 17.734 23.5717C17.734 23.8371 17.5129 24.0139 17.2918 24.0139H8.09419C7.87309 24.0139 7.65199 23.8371 7.65199 23.5717C7.65199 23.3064 7.87309 23.1296 8.09419 23.1296Z" fill="white"/>
<path d="M25.2067 23.837C24.7645 23.837 24.4549 23.4832 24.4549 22.9968C24.4549 22.7757 24.2338 22.5546 24.0128 22.5546C23.7474 22.5546 23.5706 22.7757 23.5706 22.9968C23.5706 23.7928 24.057 24.4561 24.7645 24.6329V24.9867C24.7645 25.2078 24.9856 25.4289 25.2067 25.4289C25.4278 25.4289 25.6489 25.2078 25.6489 24.9867V24.6329C26.3564 24.4561 26.8428 23.7928 26.8428 22.9968C26.8428 22.0682 26.0911 21.2723 25.2067 21.2723C24.7645 21.2723 24.4549 20.9185 24.4549 20.4321C24.4549 19.9899 24.8087 19.5919 25.2067 19.5919C25.6489 19.5919 25.9584 19.9457 25.9584 20.4321C25.9584 20.6532 26.1795 20.8743 26.4006 20.8743C26.6659 20.8743 26.8428 20.6532 26.8428 20.4321C26.8428 19.6361 26.3564 18.9728 25.6489 18.796V18.4422C25.6489 18.2211 25.4278 18 25.2067 18C24.9856 18 24.7645 18.2211 24.7645 18.4422V18.796C24.057 19.0171 23.5706 19.6804 23.5706 20.4321C23.5706 21.3607 24.3223 22.1566 25.2067 22.1566C25.6489 22.1566 25.9584 22.5104 25.9584 22.9968C25.9584 23.4832 25.6047 23.837 25.2067 23.837Z" fill="white"/>
</svg>
