<svg width="36" height="36" viewBox="0 0 36 36" fill="none" xmlns="http://www.w3.org/2000/svg">
<path fill-rule="evenodd" clip-rule="evenodd" d="M6.71885 20.0647C6.78937 20.4815 6.81953 20.7086 6.68601 20.9011C6.37593 21.3512 6.39112 21.7443 6.4596 21.9954C6.66464 22.7566 7.55866 23.1765 8.21038 23.4822L8.2582 23.5049C9.01399 23.8608 9.24813 24.1861 9.22141 24.3183C9.17669 24.539 8.55738 24.96 7.26524 25.0616C5.93585 23.0934 5.15889 20.7229 5.15889 18.1742C5.15889 17.2586 5.25888 16.3582 5.45203 15.4858C5.52051 15.5152 5.588 15.5468 5.65438 15.5805C6.55727 16.0391 7.48553 14.9248 8.09929 14.1877C8.17045 14.1026 8.23415 14.026 8.28843 13.9636C8.54873 13.6671 8.8432 13.5031 9.07741 13.5234C9.24757 13.5383 9.40443 13.66 9.54442 13.885C10.068 14.9855 9.24553 15.8388 7.93328 17.0121C7.82247 17.1114 7.71264 17.2093 7.60724 17.3063C6.43563 18.3752 6.59967 19.3516 6.71899 20.0647H6.71885ZM16.9109 9.70995C17.0248 9.97699 17.102 10.4112 16.8248 10.9629C16.693 11.2266 16.7492 11.3391 16.8987 11.639C17.2393 12.3206 17.4528 13.0435 16.3432 14.3815C16.231 14.5178 16.2337 14.8102 16.2371 15.12C16.2449 15.8114 16.2574 16.9684 14.613 17.3392L14.5242 17.3589C11.6852 17.9831 10.9579 18.4959 10.7878 18.6613C10.8067 18.6765 10.8308 18.6948 10.8623 18.7159C11.2991 19.0043 11.4917 18.9202 11.841 18.7673C12.5991 18.4359 13.3289 18.2881 14.5903 19.8457C14.8197 20.1277 15.0586 20.2649 15.3013 20.2527C15.6134 20.2375 15.9649 19.9772 16.2407 19.5563C16.2953 19.4733 16.3586 19.3705 16.4298 19.2574C17.0196 18.3071 17.9112 16.8718 18.9856 17.2406C19.5797 17.445 20.0128 17.4625 20.2039 17.2901C20.6737 16.8657 20.2894 15.2193 20.105 14.428C20.0515 14.2002 20.0057 14.0036 19.9749 13.8369C19.7773 12.7812 20.4798 11.7516 21.2638 11.1995C21.9311 10.7298 22.6238 10.6217 23.1173 10.9101C23.4619 11.1111 23.8487 11.5788 23.7395 12.667C23.6969 13.0964 23.7724 13.2031 23.7741 13.2038C23.7762 13.2042 23.9236 13.2777 24.5797 13.0666C25.4426 12.789 25.3931 12.2691 25.0494 10.9619C24.8352 10.1488 24.5789 9.17452 25.0765 8.46105C22.9543 6.80723 20.3005 5.83833 17.4951 5.83833C16.96 5.83833 16.4246 5.87285 15.8959 5.9412C15.8426 6.11403 15.7792 6.28354 15.7058 6.44885C15.4244 7.08258 15.0543 7.70597 14.6672 8.29582C15.472 8.54508 16.5613 8.88813 16.9109 9.71002V9.70995ZM23.8291 17.9203L28.8372 14.1736C28.9224 14.1097 29.0138 14.0544 29.1099 14.0085C28.4259 12.1045 27.2882 10.4353 25.8437 9.11025C25.6958 9.42947 25.7945 9.92447 26.0015 10.7115C26.1591 11.3093 26.3214 11.9278 26.2469 12.5019C26.152 13.2374 25.6921 13.7426 24.8814 14.0036C24.2859 14.1951 23.6152 14.3409 23.1526 13.9667C22.711 13.6101 22.7171 12.998 22.7602 12.5686C22.8106 12.0616 22.7171 11.8162 22.6209 11.7603C22.5033 11.6916 22.1864 11.7536 21.8313 12.004C21.3052 12.3744 20.8315 13.0608 20.9426 13.6559C20.9701 13.8009 21.0134 13.988 21.0637 14.2043C21.3426 15.4003 21.7638 17.2076 20.864 18.0204C20.3814 18.4563 19.6419 18.5071 18.6659 18.1716C18.6235 18.1574 18.4439 18.1991 18.1189 18.561C17.801 18.9155 17.4919 19.4136 17.2662 19.7769C17.1998 19.8841 17.1324 19.9908 17.0642 20.0969C16.6094 20.7896 15.9848 21.2044 15.3507 21.2366C15.3246 21.2373 15.2985 21.238 15.2714 21.238C14.8796 21.238 14.336 21.0946 13.8263 20.4652C13.2864 19.7996 12.956 19.601 12.773 19.5526C12.6119 19.5099 12.4849 19.5604 12.2358 19.6695C11.8247 19.8488 11.2027 20.1209 10.3199 19.5373C9.75395 19.1625 9.73764 18.7368 9.77899 18.5165C9.88031 17.9716 10.4873 17.2385 14.3136 16.3973L14.3966 16.379C15.2649 16.1831 15.2605 15.8317 15.253 15.1312C15.248 14.6794 15.2422 14.1673 15.5855 13.7532C16.3779 12.7985 16.2267 12.4965 16.018 12.079C15.8387 11.7187 15.5919 11.2256 15.9454 10.5214C16.0623 10.2885 16.0355 10.1668 16.0054 10.0953C15.8315 9.68695 14.8717 9.38974 14.3563 9.22978L14.2952 9.2108C14.2265 9.18941 14.1589 9.16463 14.0926 9.13655C13.41 10.0984 12.6773 11.0117 11.9347 11.9256C11.8379 12.0447 11.706 12.1075 11.5525 12.1075C11.3991 12.1075 11.2671 12.0447 11.1704 11.9256C10.4402 11.027 9.71964 10.1289 9.04675 9.18471C7.47091 10.6629 6.32903 12.5014 5.70536 14.5266C5.83763 14.5773 5.96711 14.635 6.09328 14.6994C6.11866 14.6974 6.27124 14.6723 6.5932 14.3795C6.86397 14.1331 7.12968 13.8142 7.34252 13.5576C7.42014 13.4654 7.48891 13.3824 7.5479 13.3149C8.02103 12.7751 8.60969 12.4941 9.16453 12.5426C9.51187 12.5738 10.0077 12.7466 10.3985 13.3952C10.4063 13.4074 10.4133 13.42 10.4195 13.4329C11.3295 15.2951 9.74615 16.7118 8.58944 17.7458C8.48102 17.8431 8.37421 17.9386 8.27022 18.0333C7.49545 18.7409 7.58531 19.2784 7.69 19.9013C7.771 20.3836 7.86248 20.9302 7.49678 21.4603C7.38021 21.629 7.40256 21.7114 7.40967 21.7379C7.49678 22.0602 8.26171 22.4187 8.62874 22.5916L8.67719 22.614C10.106 23.2864 10.2867 24.018 10.1864 24.5139C10.0397 25.2356 9.20657 25.7636 7.94313 25.9714C9.15876 27.4578 10.7138 28.6563 12.4887 29.4477C12.8613 28.073 13.8144 27.8249 14.396 27.8094C15.2108 27.7878 15.4371 27.6353 15.4961 27.5698C15.5646 27.4959 15.5594 27.3369 15.5442 27.0831C15.5222 26.7286 15.4927 26.2436 15.8618 25.8512C16.2275 25.4631 16.8653 25.2892 17.9312 25.2892C19.2594 25.2892 19.6054 26.1382 19.7911 26.5937C19.8071 26.6344 19.8274 26.6835 19.8467 26.7266C20.0019 26.6506 20.3486 26.4229 21.0854 25.7478C22.0262 24.8849 22.9375 24.5203 23.7953 24.6637C24.8868 24.8467 25.6673 25.7962 26.2853 26.8286C26.8076 26.2991 27.2809 25.7235 27.6995 25.1087H26.5828C25.9941 25.1087 25.5148 24.6295 25.5148 24.0413V20.1997H24.5875C24.3216 20.2002 24.0623 20.1168 23.8466 19.9612C23.6309 19.8057 23.4698 19.586 23.3864 19.3335C23.3027 19.0812 23.3004 18.8091 23.3799 18.5554C23.4593 18.3018 23.6165 18.0796 23.8293 17.9203H23.8291ZM14.4216 28.7932C14.1964 28.7992 13.6362 28.8143 13.4108 29.815C14.6897 30.2651 16.0644 30.5101 17.4952 30.5101C20.4943 30.5101 23.3411 29.4172 25.5482 27.5175C25.0499 26.6519 24.4059 25.7639 23.6325 25.6346C23.0893 25.5441 22.4565 25.8261 21.7505 26.4734C20.6091 27.519 20.0614 27.8355 19.5784 27.727C19.1504 27.6308 18.9935 27.2455 18.879 26.9652C18.7156 26.5636 18.5977 26.2738 17.931 26.2738C16.9241 26.2738 16.6499 26.4497 16.5791 26.5256C16.5066 26.6029 16.5107 26.7645 16.5262 27.0224C16.5479 27.3705 16.5767 27.848 16.2226 28.2347C15.8948 28.5919 15.3224 28.7698 14.4216 28.7932ZM31.08 27.1983C30.8587 27.0407 30.5513 27.0929 30.3937 27.3142C27.4296 31.4895 22.6069 33.9822 17.4935 33.9822C8.7764 33.9822 1.68405 26.8895 1.68405 18.1724C1.68405 14.7532 2.8004 11.4145 4.84164 8.69105L4.82744 9.15637C4.82373 9.28692 4.87202 9.4136 4.9617 9.50855C5.05137 9.6035 5.17509 9.65895 5.30563 9.6627C5.37028 9.66467 5.43468 9.65387 5.49515 9.63091C5.55561 9.60794 5.61095 9.57327 5.65799 9.52888C5.70503 9.48449 5.74284 9.43125 5.76926 9.37221C5.79568 9.31318 5.81019 9.24951 5.81195 9.18485L5.86757 7.27748C5.86958 7.20111 5.85385 7.12532 5.82163 7.05605C5.78941 6.98678 5.74158 6.92592 5.68188 6.87825C5.62214 6.83056 5.55209 6.79747 5.47731 6.78164C5.40253 6.76581 5.32508 6.76766 5.25114 6.78705L3.41022 7.26694C3.28389 7.29983 3.1758 7.38157 3.10973 7.49416C3.04366 7.60675 3.02502 7.74097 3.05792 7.8673C3.09082 7.99363 3.17255 8.10172 3.28514 8.16779C3.39773 8.23386 3.53195 8.2525 3.65828 8.2196L4.03952 8.12032C1.88022 11.0097 0.699463 14.5486 0.699463 18.1725C0.699463 22.6583 2.44687 26.8757 5.61838 30.0475C8.79025 33.22 13.0076 34.9664 17.4934 34.9664C20.221 34.9664 22.9295 34.2977 25.3256 33.0322C27.6448 31.8074 29.6752 30.0272 31.1962 27.8846C31.3537 27.6623 31.3016 27.3552 31.0799 27.1983H31.08ZM31.3566 10.5653C31.3991 10.6426 31.4616 10.707 31.5376 10.7518C31.6135 10.7967 31.7001 10.8203 31.7883 10.8202C31.8712 10.8201 31.9527 10.7991 32.0252 10.7591C32.1395 10.6961 32.2241 10.5902 32.2603 10.4648C32.2965 10.3394 32.2814 10.2048 32.2184 10.0905C31.9735 9.64555 31.7089 9.21176 31.4253 8.7904C31.3523 8.68214 31.2393 8.6073 31.1111 8.58233C30.9829 8.55736 30.8501 8.5843 30.7417 8.65723C30.516 8.80903 30.4571 9.11475 30.6089 9.34045C30.8763 9.73732 31.1258 10.146 31.3565 10.5653H31.3566ZM32.8535 14.4122C32.8799 14.519 32.9413 14.6138 33.0278 14.6817C33.1144 14.7495 33.2211 14.7865 33.3311 14.7867C33.3704 14.7867 33.4097 14.7819 33.449 14.7722C33.5118 14.7568 33.5709 14.7292 33.623 14.6909C33.6751 14.6527 33.7192 14.6045 33.7526 14.5492C33.7861 14.4938 33.8082 14.4325 33.8179 14.3685C33.8276 14.3046 33.8245 14.2394 33.8089 14.1767C33.6876 13.6835 33.5442 13.196 33.3792 12.7157C33.3367 12.5922 33.2469 12.4906 33.1296 12.4333C33.0123 12.376 32.877 12.3676 32.7535 12.4099C32.497 12.4984 32.3597 12.778 32.4485 13.0352C32.6035 13.4881 32.7386 13.9476 32.8535 14.4122ZM27.8752 6.2472C28.2363 6.5614 28.5831 6.89161 28.9147 7.23684C28.9605 7.28477 29.0156 7.3229 29.0766 7.34894C29.1376 7.37499 29.2032 7.3884 29.2695 7.38837C29.3926 7.38837 29.5149 7.34259 29.6108 7.25112C29.8067 7.06268 29.8132 6.7512 29.6248 6.55531C29.2729 6.18888 28.9048 5.83832 28.5216 5.5047C28.3169 5.32638 28.0062 5.34776 27.8276 5.55279C27.649 5.75782 27.6706 6.0686 27.8754 6.2472H27.8752ZM20.5213 2.65479C20.991 2.74643 21.4565 2.85907 21.9162 2.99236C21.9608 3.00534 22.007 3.01195 22.0534 3.01198C22.16 3.01191 22.2637 2.97725 22.3489 2.91321C22.4341 2.84916 22.4962 2.7592 22.5259 2.65683C22.5439 2.59474 22.5495 2.52971 22.5424 2.46545C22.5353 2.40118 22.5156 2.33895 22.4845 2.2823C22.4533 2.22565 22.4113 2.17569 22.3608 2.13528C22.3104 2.09488 22.2524 2.06481 22.1903 2.0468C21.7023 1.90569 21.2082 1.78616 20.7096 1.68855C20.6462 1.67617 20.5809 1.67641 20.5176 1.68927C20.4542 1.70212 20.394 1.72733 20.3404 1.76346C20.2868 1.79959 20.2409 1.84593 20.2052 1.89983C20.1695 1.95374 20.1448 2.01414 20.1325 2.07759C20.1075 2.20567 20.1345 2.33842 20.2074 2.44666C20.2802 2.5549 20.3931 2.62976 20.5212 2.65479H20.5213ZM24.435 3.96703C24.865 4.17717 25.2855 4.40639 25.6951 4.65398C25.7503 4.68746 25.8116 4.70971 25.8755 4.71946C25.9394 4.72921 26.0046 4.72627 26.0673 4.71081C26.13 4.69536 26.1891 4.66768 26.2411 4.62937C26.2931 4.59106 26.3371 4.54287 26.3705 4.48755C26.5111 4.25503 26.4366 3.95241 26.2048 3.81143C25.7699 3.54883 25.3237 3.30559 24.8674 3.08243C24.7501 3.02514 24.6148 3.01677 24.4912 3.05915C24.3677 3.10154 24.2661 3.19121 24.2086 3.30848C24.0896 3.55282 24.1909 3.84778 24.435 3.96703ZM16.3673 2.40159C16.3784 2.40159 16.3896 2.40124 16.4019 2.40026C16.8792 2.36731 17.3577 2.35565 17.8361 2.36531C18.1076 2.37178 18.3326 2.15487 18.3381 1.88339C18.3394 1.81879 18.3281 1.75454 18.3046 1.69433C18.2812 1.63412 18.2461 1.57912 18.2013 1.53248C18.1566 1.48584 18.1031 1.44847 18.044 1.4225C17.9848 1.39653 17.9211 1.38248 17.8565 1.38115C17.3526 1.37095 16.8398 1.38354 16.3334 1.41841C16.0623 1.4374 15.8576 1.67224 15.8766 1.94337C15.8853 2.06765 15.9408 2.18402 16.0318 2.26904C16.1229 2.35407 16.2428 2.40143 16.3673 2.40159H16.3673ZM8.29877 6.0492C7.71707 4.73913 7.96134 3.14346 9.03142 2.07337C9.7247 1.38009 10.6386 1.03345 11.5525 1.03345C12.4663 1.03345 13.3803 1.38009 14.0735 2.07337C15.1437 3.14346 15.3879 4.7392 14.8062 6.0492C14.2705 7.25548 13.0944 8.93974 11.5524 10.8354C10.0105 8.93974 8.83427 7.25555 8.29863 6.0492H8.29877ZM9.9741 4.58592C9.9741 5.45534 10.6832 6.16444 11.5526 6.16444C12.422 6.16444 13.1311 5.45534 13.1311 4.58592C13.1311 3.71651 12.422 3.00748 11.5526 3.00748C10.6832 3.00748 9.9741 3.71658 9.9741 4.58592ZM35.1873 18.7083L30.1792 14.9617C30.0709 14.8798 29.9389 14.8354 29.8031 14.8352C29.6673 14.8354 29.5352 14.8798 29.4269 14.9617L24.4188 18.7083C24.371 18.7434 24.3357 18.7927 24.318 18.8493C24.3003 18.9058 24.3011 18.9665 24.3204 19.0226C24.3385 19.0789 24.3743 19.128 24.4223 19.1627C24.4703 19.1973 24.5282 19.2157 24.5874 19.2151H25.526C25.5641 18.9406 25.7061 18.7011 25.9351 18.5298L29.2693 16.0354C29.4263 15.9185 29.6106 15.8568 29.8031 15.8568C29.9955 15.8568 30.1799 15.9185 30.3368 16.0354L33.671 18.5298C33.9 18.7011 34.042 18.9406 34.0802 19.2151H35.0187C35.0779 19.2157 35.1358 19.1973 35.1839 19.1627C35.2319 19.128 35.2676 19.0789 35.2858 19.0226C35.305 18.9665 35.3058 18.9058 35.2881 18.8493C35.2704 18.7927 35.2351 18.7434 35.1873 18.7083ZM33.0817 19.3184L29.8031 16.8654L26.5245 19.3184C26.5042 19.333 26.499 19.3422 26.499 19.3676V24.0412C26.499 24.0863 26.5377 24.1242 26.5828 24.1242H28.9575V21.8706C28.9577 21.761 29.0013 21.6559 29.0788 21.5784C29.1563 21.5009 29.2613 21.4573 29.3709 21.4571H30.2351C30.3447 21.4573 30.4498 21.5009 30.5273 21.5784C30.6048 21.6559 30.6484 21.761 30.6486 21.8706V24.1242H33.0233C33.0684 24.1242 33.1064 24.0863 33.1064 24.0412V19.3676C33.1064 19.3422 33.1014 19.333 33.0817 19.3184Z" fill="white"/>
</svg>
