<svg width="40" height="40" viewBox="0 0 40 40" fill="none" xmlns="http://www.w3.org/2000/svg">
<circle cx="28.5" cy="22.5" r="2.5" stroke="#737A8E" stroke-width="2"/>
<circle cx="19" cy="9" r="2" stroke="#737A8E" stroke-width="2"/>
<path d="M36 21L28.5 15L21 21V36H36V21Z" stroke="#737A8E" stroke-width="2"/>
<path d="M11.4693 12.5253L12.1767 13.2321L12.6369 12.7716L12.402 12.1644L11.4693 12.5253ZM15.4731 16.53L15.8342 15.5975L15.2271 15.3624L14.7664 15.8225L15.4731 16.53ZM4 20L3.29264 19.2931L3 19.586V20H4ZM4 24H3V25H4V24ZM8 24V25H8.41421L8.70711 24.7071L8 24ZM10 22L10.7071 22.7071L11 22.4142V22H10ZM10 19V18H9V19H10ZM13 19V20H13.4138L13.7067 19.7076L13 19ZM24 10C24 13.3137 21.3137 16 18 16V18C22.4183 18 26 14.4183 26 10H24ZM12 10C12 6.68629 14.6863 4 18 4V2C13.5817 2 10 5.58172 10 10H12ZM18 4C21.3137 4 24 6.68629 24 10H26C26 5.58172 22.4183 2 18 2V4ZM12.402 12.1644C12.1427 11.4943 12 10.765 12 10H10C10 11.0157 10.1898 11.9895 10.5367 12.8861L12.402 12.1644ZM18 16C17.2345 16 16.5047 15.8571 15.8342 15.5975L15.112 17.4625C16.0092 17.81 16.9836 18 18 18V16ZM3 20V24H5V20H3ZM4 25H8V23H4V25ZM8.70711 24.7071L10.7071 22.7071L9.29289 21.2929L7.29289 23.2929L8.70711 24.7071ZM11 22V19H9V22H11ZM10 20H13V18H10V20ZM10.762 11.8184L3.29264 19.2931L4.70736 20.7069L12.1767 13.2321L10.762 11.8184ZM14.7664 15.8225L12.2933 18.2924L13.7067 19.7076L16.1798 17.2376L14.7664 15.8225Z" fill="#737A8E"/>
<path d="M23.5 8C22.5664 8 21.6748 8.17012 20.8531 8.48018L20.147 6.60893C21.191 6.21505 22.3216 6 23.5 6C28.7468 6 33 10.2533 33 15.5C33 16.4752 32.8531 17.4161 32.5801 18.3018L30.8648 16.9253C30.9536 16.4638 31 15.9873 31 15.5C31 11.3579 27.6422 8 23.5 8Z" fill="#737A8E"/>
<path d="M26.4441 23.8364L26.7709 24.4219C25.7511 24.7959 24.6494 25 23.5 25C20.0992 25 17.1167 23.2123 15.4397 20.5301L16.9105 19.0845C17.1161 19.4616 17.3532 19.8192 17.6181 20.1536C18.993 21.8889 21.1171 23 23.5 23C24.4012 23 25.2652 22.8411 26.0656 22.5497L26.4441 23.8364Z" fill="#737A8E"/>
</svg>
