<svg width="31" height="32" viewBox="0 0 31 32" fill="none" xmlns="http://www.w3.org/2000/svg">
<path d="M28.2176 22.2281L17.6905 12.9183L15.6334 14.9669L24.9817 25.4507C25.1891 25.6854 25.4426 25.8752 25.7266 26.0085C26.0105 26.1417 26.3189 26.2156 26.6327 26.2255C26.9464 26.2354 27.2589 26.1811 27.5508 26.066C27.8426 25.951 28.1077 25.7775 28.3296 25.5564C28.5513 25.3356 28.7251 25.0718 28.8402 24.7814C28.9552 24.491 29.0092 24.1801 28.9987 23.8681C28.9882 23.556 28.9135 23.2494 28.7791 22.9673C28.6448 22.6852 28.4536 22.4336 28.2176 22.2281ZM15.6275 24.5233C15.6275 23.4725 14.7728 22.6273 13.7237 22.6273H5.96683C4.91765 22.6273 4.06299 23.4725 4.06299 24.5233V25.3686H15.6275V24.5233ZM15.7867 25.9556H3.90384C2.85467 25.9556 2 26.8008 2 27.8516V29.3484C2 29.7065 2.29471 30 2.65426 30H17.0362C17.4017 30 17.6905 29.7065 17.6905 29.3484V27.8516C17.6905 26.8008 16.8358 25.9556 15.7867 25.9556ZM7.61428 10.9142L13.6305 4.92331L19.2513 10.521L13.235 16.5119L7.61428 10.9142ZM19.7853 10.2286C20.3394 10.7798 21.2347 10.7798 21.7882 10.2286C21.9199 10.0978 22.0244 9.94232 22.0957 9.77118C22.167 9.60005 22.2037 9.41659 22.2037 9.23131C22.2037 9.04603 22.167 8.86258 22.0957 8.69144C22.0244 8.52031 21.9199 8.36486 21.7882 8.234L15.9399 2.40977C15.8088 2.27855 15.6526 2.17472 15.4807 2.10436C15.3087 2.03401 15.1244 1.99854 14.9385 2.00005C14.7526 1.99854 14.5682 2.03401 14.3963 2.10436C14.2243 2.17472 14.0682 2.27855 13.937 2.40977C13.8053 2.54063 13.7008 2.69608 13.6296 2.86722C13.5583 3.03835 13.5216 3.22181 13.5216 3.40709C13.5216 3.59237 13.5583 3.77582 13.6296 3.94696C13.7008 4.11809 13.8053 4.27354 13.937 4.4044L19.7853 10.2286ZM10.9333 19.0442C11.0647 19.1754 11.2208 19.2794 11.3927 19.3504C11.5645 19.4214 11.7487 19.458 11.9348 19.458C12.1208 19.458 12.305 19.4214 12.4769 19.3504C12.6487 19.2794 12.8048 19.1754 12.9362 19.0442C13.0678 18.9134 13.1722 18.7579 13.2435 18.5869C13.3147 18.4158 13.3514 18.2324 13.3514 18.0472C13.3514 17.862 13.3147 17.6786 13.2435 17.5075C13.1722 17.3364 13.0678 17.181 12.9362 17.0502L7.08792 11.2259C6.81952 10.9754 6.46379 10.8386 6.09595 10.8445C5.72811 10.8504 5.37699 10.9985 5.11685 11.2576C4.85671 11.5167 4.70795 11.8664 4.70201 12.2327C4.69608 12.599 4.83344 12.9533 5.08505 13.2206L10.9333 19.0442Z" fill="white"/>
</svg>
